<?xml version="1.0" encoding="UTF-8"?>
<svg xmlns="http://www.w3.org/2000/svg" width="1930.74" height="1008.5" viewBox="0 0 1930.74 1008.5">
  <defs>
    <pattern id="drawio-grid" width="10" height="10" patternUnits="userSpaceOnUse">
      <path d="M 10 0 L 0 0 0 10" fill="none" stroke="#e5e5e5" stroke-width="1" />
    </pattern>
    <filter id="drawio-shadow" x="-20%" y="-20%" width="160%" height="160%">
      <feDropShadow dx="2" dy="2" stdDeviation="1.4" flood-color="#000000" flood-opacity="0.22" />
    </filter>
    <marker id="arrow-end" viewBox="0 0 10 10" refX="9" refY="5" markerWidth="7" markerHeight="7" orient="auto-start-reverse">
      <path d="M 0 0 L 10 5 L 0 10 z" fill="#000000" />
    </marker>
  </defs>
  <rect x="0" y="0" width="100%" height="100%" fill="#ffffff" />
  <rect x="0" y="0" width="100%" height="100%" fill="url(#drawio-grid)" />
  <g fill="none" stroke="#000000" stroke-width="1.5">
    <path d="M 1402.66 23 L 1402.66 48" marker-end="url(#arrow-end)" />
    <path d="M 1402.66 120.5 L 1402.66 192" marker-end="url(#arrow-end)" />
    <path d="M 1402.66 264.5 L 1402.66 336" marker-end="url(#arrow-end)" />
    <path d="M 1402.66 408.5 L 1402.66 480" marker-end="url(#arrow-end)" />
    <path d="M 1402.66 552.5 L 1402.66 624" marker-end="url(#arrow-end)" />
    <path d="M 1402.66 696.5 L 1402.66 768" marker-end="url(#arrow-end)" />
    <path d="M 1402.66 840.5 L 1402.66 912" marker-end="url(#arrow-end)" />
  </g>
  <g fill="#ffffff" stroke="#000000" stroke-width="1.5" filter="url(#drawio-shadow)">
    <path d="M 1316.66 48 L 1482.41 48 Q 1518.66 48 1518.66 84.25 Q 1518.66 120.5 1482.41 120.5 L 1316.66 120.5 L 1286.66 84.25 Z" />
    <path d="M 1316.66 192 L 1482.41 192 Q 1518.66 192 1518.66 228.25 Q 1518.66 264.5 1482.41 264.5 L 1316.66 264.5 L 1286.66 228.25 Z" />
    <path d="M 1316.66 336 L 1482.41 336 Q 1518.66 336 1518.66 372.25 Q 1518.66 408.5 1482.41 408.5 L 1316.66 408.5 L 1286.66 372.25 Z" />
    <path d="M 1316.66 480 L 1482.41 480 Q 1518.66 480 1518.66 516.25 Q 1518.66 552.5 1482.41 552.5 L 1316.66 552.5 L 1286.66 516.25 Z" />
    <path d="M 1316.66 624 L 1482.41 624 Q 1518.66 624 1518.66 660.25 Q 1518.66 696.5 1482.41 696.5 L 1316.66 696.5 L 1286.66 660.25 Z" />
    <path d="M 1316.66 768 L 1482.41 768 Q 1518.66 768 1518.66 804.25 Q 1518.66 840.5 1482.41 840.5 L 1316.66 840.5 L 1286.66 804.25 Z" />
    <rect x="1286.66" y="912" width="232" height="72.5" rx="36.25" ry="36.25" />
  </g>
  <g fill="#000000" font-family="Helvetica, Arial, sans-serif">
    <text x="1402.66" y="81.45" text-anchor="middle" font-size="12">
      <tspan x="1402.66" dy="0">&quot;Quantidade de casado(a)s: &quot;</tspan>
      <tspan x="1402.66" dy="14">+ casados</tspan>
    </text>
    <text x="1402.66" y="225.45" text-anchor="middle" font-size="12">
      <tspan x="1402.66" dy="0">&quot;Quantidade de solteiro(a)s:</tspan>
      <tspan x="1402.66" dy="14">&quot; + solteiros</tspan>
    </text>
    <text x="1402.66" y="369.45" text-anchor="middle" font-size="12">
      <tspan x="1402.66" dy="0">&quot;Quantidade de viúvo(a)s: &quot; +</tspan>
      <tspan x="1402.66" dy="14">viuvos</tspan>
    </text>
    <text x="1402.66" y="513.45" text-anchor="middle" font-size="12">
      <tspan x="1402.66" dy="0">&quot;Quantidade de outros: &quot; +</tspan>
      <tspan x="1402.66" dy="14">outros</tspan>
    </text>
    <text x="1402.66" y="657.45" text-anchor="middle" font-size="12">
      <tspan x="1402.66" dy="0">&quot;Percentual de casado(a)s: &quot;</tspan>
      <tspan x="1402.66" dy="14">+ percentual_casados + &quot;%&quot;</tspan>
    </text>
    <text x="1402.66" y="794.45" text-anchor="middle" font-size="12">
      <tspan x="1402.66" dy="0">&quot;Percentual de solteiro(a)s:</tspan>
      <tspan x="1402.66" dy="14">&quot; + percentual_solteiros +</tspan>
      <tspan x="1402.66" dy="14">&quot;%&quot;</tspan>
    </text>
    <text x="1402.66" y="952.45" text-anchor="middle" font-size="12">
      <tspan x="1402.66" dy="0">Fim</tspan>
    </text>
    <circle cx="1402.66" cy="11" r="9" fill="#ffffff" stroke="#000000" stroke-width="1.5" filter="url(#drawio-shadow)" />
    <text x="1402.66" y="15" text-anchor="middle" font-size="11" font-family="Helvetica, Arial, sans-serif">1</text>
  </g>
</svg>
