<?xml version="1.0" encoding="UTF-8"?>
<svg xmlns="http://www.w3.org/2000/svg" width="292.48" height="653.61" viewBox="0 0 292.48 653.61">
  <defs>
    <pattern id="drawio-grid" width="10" height="10" patternUnits="userSpaceOnUse">
      <path d="M 10 0 L 0 0 0 10" fill="none" stroke="#e5e5e5" stroke-width="1" />
    </pattern>
    <filter id="drawio-shadow" x="-20%" y="-20%" width="160%" height="160%">
      <feDropShadow dx="2" dy="2" stdDeviation="1.4" flood-color="#000000" flood-opacity="0.22" />
    </filter>
    <marker id="arrow-end" viewBox="0 0 10 10" refX="9" refY="5" markerWidth="7" markerHeight="7" orient="auto-start-reverse">
      <path d="M 0 0 L 10 5 L 0 10 z" fill="#000000" />
    </marker>
  </defs>
  <rect x="0" y="0" width="100%" height="100%" fill="#ffffff" />
  <rect x="0" y="0" width="100%" height="100%" fill="url(#drawio-grid)" />
  <g fill="none" stroke="#000000" stroke-width="1.5">
    <path d="M 146.24 20 L 146.24 48" marker-end="url(#arrow-end)" />
    <path d="M 146.24 98 L 146.24 162.5" marker-end="url(#arrow-end)" />
    <path d="M 146.24 205 L 146.24 262" marker-end="url(#arrow-end)" />
    <path d="M 66.24 287 L 24 287 L 24 20" marker-end="url(#arrow-end)" />
    <path d="M 268.48 20 L 268.48 330.9 L 146.24 330.9 L 146.24 349.8" marker-end="url(#arrow-end)" />
    <path d="M 146.24 399.8 L 146.24 442.8" marker-end="url(#arrow-end)" />
    <path d="M 146.24 522.8 L 146.24 565.8" marker-end="url(#arrow-end)" />
    <rect x="138.44" y="522.84" width="31.6" height="16" fill="#ffffff" stroke="none" />
    <text x="154.24" y="534.84" text-anchor="middle" font-size="12" font-family="Helvetica, Arial, sans-serif">Sim</text>
    <path d="M 146.24 615.8 L 146.24 633.61" marker-end="url(#arrow-end)" />
    <path d="M 24 633.61 L 24 482.8 L 81.24 482.8" marker-end="url(#arrow-end)" />
    <path d="M 211.24 482.8 L 268.48 482.8 L 268.48 633.61" marker-end="url(#arrow-end)" />
    <rect x="211.47" y="462.8" width="31.6" height="16" fill="#ffffff" stroke="none" />
    <text x="227.27" y="474.8" text-anchor="middle" font-size="12" font-family="Helvetica, Arial, sans-serif">Não</text>
  </g>
  <g fill="#ffffff" stroke="#000000" stroke-width="1.5" filter="url(#drawio-shadow)">
    <path d="M 91.84 48 L 201.24 48 Q 226.24 48 226.24 73 Q 226.24 98 201.24 98 L 91.84 98 L 66.24 73 Z" />
    <polygon points="66.24,170 226.24,155 226.24,205 66.24,205" />
    <rect x="66.24" y="262" width="160" height="50" />
    <rect x="66.24" y="349.8" width="160" height="50" />
    <polygon points="146.24,442.8 211.24,482.8 146.24,522.8 81.24,482.8" />
    <rect x="66.24" y="565.8" width="160" height="50" />
  </g>
  <g fill="#000000" font-family="Helvetica, Arial, sans-serif">
    <text x="146.24" y="77.2" text-anchor="middle" font-size="12">
      <tspan x="146.24" dy="0">&quot;Informe B[i]&quot;</tspan>
    </text>
    <text x="146.24" y="184.2" text-anchor="middle" font-size="12">
      <tspan x="146.24" dy="0">B[i]</tspan>
    </text>
    <text x="146.24" y="291.2" text-anchor="middle" font-size="12">
      <tspan x="146.24" dy="0">i &lt;- i + 1</tspan>
    </text>
    <text x="146.24" y="379" text-anchor="middle" font-size="12">
      <tspan x="146.24" dy="0">i &lt;- 0 e k &lt;- 0</tspan>
    </text>
    <text x="146.24" y="487" text-anchor="middle" font-size="12">
      <tspan x="146.24" dy="0">i &lt; 10?</tspan>
    </text>
    <text x="146.24" y="595" text-anchor="middle" font-size="12">
      <tspan x="146.24" dy="0">C[k] &lt;- A[i]</tspan>
    </text>
    <circle cx="146.24" cy="11" r="9" fill="#ffffff" stroke="#000000" stroke-width="1.5" filter="url(#drawio-shadow)" />
    <text x="146.24" y="15" text-anchor="middle" font-size="11" font-family="Helvetica, Arial, sans-serif">1</text>
    <circle cx="24" cy="11" r="9" fill="#ffffff" stroke="#000000" stroke-width="1.5" filter="url(#drawio-shadow)" />
    <text x="24" y="15" text-anchor="middle" font-size="11" font-family="Helvetica, Arial, sans-serif">3</text>
    <circle cx="268.48" cy="11" r="9" fill="#ffffff" stroke="#000000" stroke-width="1.5" filter="url(#drawio-shadow)" />
    <text x="268.48" y="15" text-anchor="middle" font-size="11" font-family="Helvetica, Arial, sans-serif">2</text>
    <circle cx="146.24" cy="642.61" r="9" fill="#ffffff" stroke="#000000" stroke-width="1.5" filter="url(#drawio-shadow)" />
    <text x="146.24" y="646.61" text-anchor="middle" font-size="11" font-family="Helvetica, Arial, sans-serif">4</text>
    <circle cx="24" cy="642.61" r="9" fill="#ffffff" stroke="#000000" stroke-width="1.5" filter="url(#drawio-shadow)" />
    <text x="24" y="646.61" text-anchor="middle" font-size="11" font-family="Helvetica, Arial, sans-serif">6</text>
    <circle cx="268.48" cy="642.61" r="9" fill="#ffffff" stroke="#000000" stroke-width="1.5" filter="url(#drawio-shadow)" />
    <text x="268.48" y="646.61" text-anchor="middle" font-size="11" font-family="Helvetica, Arial, sans-serif">5</text>
  </g>
</svg>
