<?xml version="1.0" encoding="UTF-8"?>
<svg xmlns="http://www.w3.org/2000/svg" width="264" height="767.64" viewBox="0 0 264 767.64">
  <defs>
    <pattern id="drawio-grid" width="10" height="10" patternUnits="userSpaceOnUse">
      <path d="M 10 0 L 0 0 0 10" fill="none" stroke="#e5e5e5" stroke-width="1" />
    </pattern>
    <filter id="drawio-shadow" x="-20%" y="-20%" width="160%" height="160%">
      <feDropShadow dx="2" dy="2" stdDeviation="1.4" flood-color="#000000" flood-opacity="0.22" />
    </filter>
    <marker id="arrow-end" viewBox="0 0 10 10" refX="9" refY="5" markerWidth="7" markerHeight="7" orient="auto-start-reverse">
      <path d="M 0 0 L 10 5 L 0 10 z" fill="#000000" />
    </marker>
  </defs>
  <rect x="0" y="0" width="100%" height="100%" fill="#ffffff" />
  <rect x="0" y="0" width="100%" height="100%" fill="url(#drawio-grid)" />
  <g fill="none" stroke="#000000" stroke-width="1.5">
    <path d="M 132 23 L 132 49.14" marker-end="url(#arrow-end)" />
    <path d="M 132 116.64 L 132 153.64" marker-end="url(#arrow-end)" />
    <path d="M 132 221.14 L 132 258.14" marker-end="url(#arrow-end)" />
    <path d="M 132 325.64 L 132 362.64" marker-end="url(#arrow-end)" />
    <path d="M 132 430.14 L 132 467.14" marker-end="url(#arrow-end)" />
    <path d="M 132 534.64 L 132 571.64" marker-end="url(#arrow-end)" />
    <path d="M 132 639.14 L 132 676.14" marker-end="url(#arrow-end)" />
  </g>
  <g fill="#ffffff" stroke="#000000" stroke-width="1.5" filter="url(#drawio-shadow)">
    <rect x="24" y="49.14" width="216" height="67.5" />
    <rect x="24" y="153.64" width="216" height="67.5" />
    <path d="M 54 258.14 L 206.25 258.14 Q 240 258.14 240 291.89 Q 240 325.64 206.25 325.64 L 54 325.64 L 24 291.89 Z" />
    <path d="M 54 362.64 L 206.25 362.64 Q 240 362.64 240 396.39 Q 240 430.14 206.25 430.14 L 54 430.14 L 24 396.39 Z" />
    <path d="M 54 467.14 L 206.25 467.14 Q 240 467.14 240 500.89 Q 240 534.64 206.25 534.64 L 54 534.64 L 24 500.89 Z" />
    <path d="M 54 571.64 L 206.25 571.64 Q 240 571.64 240 605.39 Q 240 639.14 206.25 639.14 L 54 639.14 L 24 605.39 Z" />
    <rect x="24" y="676.14" width="216" height="67.5" rx="33.75" ry="33.75" />
  </g>
  <g fill="#000000" font-family="Helvetica, Arial, sans-serif">
    <text x="132" y="73.09" text-anchor="middle" font-size="12">
      <tspan x="132" dy="0">valor_com_desconto &lt;-</tspan>
      <tspan x="132" dy="14">valor_a_pagar -</tspan>
      <tspan x="132" dy="14">(valor_a_pagar * 8 / 100)</tspan>
    </text>
    <text x="132" y="177.59" text-anchor="middle" font-size="12">
      <tspan x="132" dy="0">valor_com_acrescimo &lt;-</tspan>
      <tspan x="132" dy="14">valor_a_pagar +</tspan>
      <tspan x="132" dy="14">(valor_a_pagar * 10 / 100)</tspan>
    </text>
    <text x="132" y="289.09" text-anchor="middle" font-size="12">
      <tspan x="132" dy="0">&quot;Valor de cada quilowatt:</tspan>
      <tspan x="132" dy="14">R$ &quot; + valor_quilowatt</tspan>
    </text>
    <text x="132" y="393.59" text-anchor="middle" font-size="12">
      <tspan x="132" dy="0">&quot;Valor a ser pago: R$ &quot; +</tspan>
      <tspan x="132" dy="14">valor_a_pagar</tspan>
    </text>
    <text x="132" y="491.09" text-anchor="middle" font-size="12">
      <tspan x="132" dy="0">&quot;Valor com desconto de 8%</tspan>
      <tspan x="132" dy="14">por pagamento antecipado:</tspan>
      <tspan x="132" dy="14">R$ &quot; + valor_com_desconto</tspan>
    </text>
    <text x="132" y="595.59" text-anchor="middle" font-size="12">
      <tspan x="132" dy="0">&quot;Valor com acréscimo de 10%</tspan>
      <tspan x="132" dy="14">por pagamento em atraso: R$</tspan>
      <tspan x="132" dy="14">&quot; + valor_com_acrescimo</tspan>
    </text>
    <text x="132" y="714.09" text-anchor="middle" font-size="12">
      <tspan x="132" dy="0">Fim</tspan>
    </text>
    <circle cx="132" cy="11" r="9" fill="#ffffff" stroke="#000000" stroke-width="1.5" filter="url(#drawio-shadow)" />
    <text x="132" y="15" text-anchor="middle" font-size="11" font-family="Helvetica, Arial, sans-serif">1</text>
  </g>
</svg>
