<?xml version="1.0" encoding="UTF-8"?>
<svg xmlns="http://www.w3.org/2000/svg" width="463.36" height="719.08" viewBox="0 0 463.36 719.08">
  <defs>
    <pattern id="drawio-grid" width="10" height="10" patternUnits="userSpaceOnUse">
      <path d="M 10 0 L 0 0 0 10" fill="none" stroke="#e5e5e5" stroke-width="1" />
    </pattern>
    <filter id="drawio-shadow" x="-20%" y="-20%" width="160%" height="160%">
      <feDropShadow dx="2" dy="2" stdDeviation="1.4" flood-color="#000000" flood-opacity="0.22" />
    </filter>
    <marker id="arrow-end" viewBox="0 0 10 10" refX="9" refY="5" markerWidth="7" markerHeight="7" orient="auto-start-reverse">
      <path d="M 0 0 L 10 5 L 0 10 z" fill="#000000" />
    </marker>
  </defs>
  <rect x="0" y="0" width="100%" height="100%" fill="#ffffff" />
  <rect x="0" y="0" width="100%" height="100%" fill="url(#drawio-grid)" />
  <g fill="none" stroke="#000000" stroke-width="1.5">
    <path d="M 439.36 23 L 439.36 626.18 L 170.24 626.18 L 170.24 645.08" marker-end="url(#arrow-end)" />
    <path d="M 170.24 23 L 170.24 37.48" marker-end="url(#arrow-end)" />
    <path d="M 170.24 87.48 L 170.24 130.48" marker-end="url(#arrow-end)" />
    <path d="M 415.36 23 L 415.36 430.38 L 170.24 430.38 L 170.24 449.28" marker-end="url(#arrow-end)" />
    <path d="M 170.24 499.28 L 170.24 557.28" marker-end="url(#arrow-end)" />
    <path d="M 90.24 582.28 L 24 582.28 L 24 23" marker-end="url(#arrow-end)" />
    <path d="M 235.24 170.48 L 293.12 170.48 L 293.12 253.48" marker-end="url(#arrow-end)" />
    <rect x="235.65" y="150.48" width="31.6" height="16" fill="#ffffff" stroke="none" />
    <text x="251.45" y="162.48" text-anchor="middle" font-size="12" font-family="Helvetica, Arial, sans-serif">Sim</text>
    <path d="M 90.24 386.48 L 48 386.48 L 48 23" marker-end="url(#arrow-end)" />
    <path d="M 105.24 170.48 L 81.24 170.48 L 81.24 332.48 L 166.24 332.48" marker-end="url(#arrow-end)" />
    <rect x="82.72" y="150.48" width="31.6" height="16" fill="#ffffff" stroke="none" />
    <text x="98.52" y="162.48" text-anchor="middle" font-size="12" font-family="Helvetica, Arial, sans-serif">Não</text>
    <path d="M 293.12 303.48 L 293.12 332.48 L 174.24 332.48" marker-end="url(#arrow-end)" />
    <path d="M 170.24 336.48 L 170.24 361.48" marker-end="url(#arrow-end)" />
  </g>
  <g fill="#ffffff" stroke="#000000" stroke-width="1.5" filter="url(#drawio-shadow)">
    <path d="M 115.84 37.48 L 225.24 37.48 Q 250.24 37.48 250.24 62.48 Q 250.24 87.48 225.24 87.48 L 115.84 87.48 L 90.24 62.48 Z" />
    <polygon points="170.24,130.48 235.24,170.48 170.24,210.48 105.24,170.48" />
    <path d="M 238.72 253.48 L 348.12 253.48 Q 373.12 253.48 373.12 278.48 Q 373.12 303.48 348.12 303.48 L 238.72 303.48 L 213.12 278.48 Z" />
    <rect x="90.24" y="361.48" width="160" height="50" />
    <path d="M 115.84 449.28 L 225.24 449.28 Q 250.24 449.28 250.24 474.28 Q 250.24 499.28 225.24 499.28 L 115.84 499.28 L 90.24 474.28 Z" />
    <rect x="90.24" y="557.28" width="160" height="50" />
    <rect x="90.24" y="645.08" width="160" height="50" rx="25" ry="25" />
    <circle cx="170.24" cy="332.48" r="4" />
  </g>
  <g fill="#000000" font-family="Helvetica, Arial, sans-serif">
    <text x="170.24" y="66.68" text-anchor="middle" font-size="12">
      <tspan x="170.24" dy="0">tarefa</tspan>
    </text>
    <text x="170.24" y="174.68" text-anchor="middle" font-size="12">
      <tspan x="170.24" dy="0">tarefa &lt; 6?</tspan>
    </text>
    <text x="293.12" y="282.68" text-anchor="middle" font-size="12">
      <tspan x="293.12" dy="0">&quot; &quot;</tspan>
    </text>
    <text x="170.24" y="383.68" text-anchor="middle" font-size="12">
      <tspan x="170.24" dy="0">tarefa &lt;- tarefa +</tspan>
      <tspan x="170.24" dy="14">1</tspan>
    </text>
    <text x="170.24" y="478.48" text-anchor="middle" font-size="12">
      <tspan x="170.24" dy="0">&quot;)&quot;</tspan>
    </text>
    <text x="170.24" y="586.48" text-anchor="middle" font-size="12">
      <tspan x="170.24" dy="0">dia &lt;- dia + 1</tspan>
    </text>
    <text x="170.24" y="674.28" text-anchor="middle" font-size="12">
      <tspan x="170.24" dy="0">Fim</tspan>
    </text>
    <circle cx="439.36" cy="11" r="9" fill="#ffffff" stroke="#000000" stroke-width="1.5" filter="url(#drawio-shadow)" />
    <text x="439.36" y="15" text-anchor="middle" font-size="11" font-family="Helvetica, Arial, sans-serif">3</text>
    <circle cx="170.24" cy="11" r="9" fill="#ffffff" stroke="#000000" stroke-width="1.5" filter="url(#drawio-shadow)" />
    <text x="170.24" y="15" text-anchor="middle" font-size="11" font-family="Helvetica, Arial, sans-serif">1</text>
    <circle cx="415.36" cy="11" r="9" fill="#ffffff" stroke="#000000" stroke-width="1.5" filter="url(#drawio-shadow)" />
    <text x="415.36" y="15" text-anchor="middle" font-size="11" font-family="Helvetica, Arial, sans-serif">2</text>
    <circle cx="24" cy="11" r="9" fill="#ffffff" stroke="#000000" stroke-width="1.5" filter="url(#drawio-shadow)" />
    <text x="24" y="15" text-anchor="middle" font-size="11" font-family="Helvetica, Arial, sans-serif">5</text>
    <circle cx="48" cy="11" r="9" fill="#ffffff" stroke="#000000" stroke-width="1.5" filter="url(#drawio-shadow)" />
    <text x="48" y="15" text-anchor="middle" font-size="11" font-family="Helvetica, Arial, sans-serif">4</text>
  </g>
</svg>
