<?xml version="1.0" encoding="UTF-8"?>
<svg xmlns="http://www.w3.org/2000/svg" width="463.36" height="682.52" viewBox="0 0 463.36 682.52">
  <defs>
    <pattern id="drawio-grid" width="10" height="10" patternUnits="userSpaceOnUse">
      <path d="M 10 0 L 0 0 0 10" fill="none" stroke="#e5e5e5" stroke-width="1" />
    </pattern>
    <filter id="drawio-shadow" x="-20%" y="-20%" width="160%" height="160%">
      <feDropShadow dx="2" dy="2" stdDeviation="1.4" flood-color="#000000" flood-opacity="0.22" />
    </filter>
    <marker id="arrow-end" viewBox="0 0 10 10" refX="9" refY="5" markerWidth="7" markerHeight="7" orient="auto-start-reverse">
      <path d="M 0 0 L 10 5 L 0 10 z" fill="#000000" />
    </marker>
  </defs>
  <rect x="0" y="0" width="100%" height="100%" fill="#ffffff" />
  <rect x="0" y="0" width="100%" height="100%" fill="url(#drawio-grid)" />
  <g fill="none" stroke="#000000" stroke-width="1.5">
    <path d="M 170.24 74 L 170.24 132" marker-end="url(#arrow-end)" />
    <path d="M 170.24 182 L 170.24 225" marker-end="url(#arrow-end)" />
    <path d="M 170.24 305 L 170.24 348" marker-end="url(#arrow-end)" />
    <rect x="162.44" y="305.04" width="31.6" height="16" fill="#ffffff" stroke="none" />
    <text x="178.24" y="317.04" text-anchor="middle" font-size="12" font-family="Helvetica, Arial, sans-serif">Sim</text>
    <path d="M 170.24 398 L 170.24 456" marker-end="url(#arrow-end)" />
    <path d="M 170.24 506 L 170.24 549" marker-end="url(#arrow-end)" />
    <path d="M 235.24 265 L 439.36 265 L 439.36 659.52" marker-end="url(#arrow-end)" />
    <rect x="276.59" y="245" width="31.6" height="16" fill="#ffffff" stroke="none" />
    <text x="292.39" y="257" text-anchor="middle" font-size="12" font-family="Helvetica, Arial, sans-serif">Não</text>
    <path d="M 170.24 629 L 170.24 659.52" marker-end="url(#arrow-end)" />
    <path d="M 235.24 589 L 415.36 589 L 415.36 659.52" marker-end="url(#arrow-end)" />
    <rect x="269.87" y="569" width="31.6" height="16" fill="#ffffff" stroke="none" />
    <text x="285.67" y="581" text-anchor="middle" font-size="12" font-family="Helvetica, Arial, sans-serif">Não</text>
    <path d="M 24 659.52 L 24 265 L 105.24 265" marker-end="url(#arrow-end)" />
    <path d="M 48 659.52 L 48 589 L 105.24 589" marker-end="url(#arrow-end)" />
  </g>
  <g fill="#ffffff" stroke="#000000" stroke-width="1.5" filter="url(#drawio-shadow)">
    <rect x="90.24" y="24" width="160" height="50" rx="25" ry="25" />
    <rect x="90.24" y="132" width="160" height="50" />
    <polygon points="170.24,225 235.24,265 170.24,305 105.24,265" />
    <path d="M 115.84 348 L 225.24 348 Q 250.24 348 250.24 373 Q 250.24 398 225.24 398 L 115.84 398 L 90.24 373 Z" />
    <rect x="90.24" y="456" width="160" height="50" />
    <polygon points="170.24,549 235.24,589 170.24,629 105.24,589" />
  </g>
  <g fill="#000000" font-family="Helvetica, Arial, sans-serif">
    <text x="170.24" y="53.2" text-anchor="middle" font-size="12">
      <tspan x="170.24" dy="0">Início</tspan>
    </text>
    <text x="170.24" y="161.2" text-anchor="middle" font-size="12">
      <tspan x="170.24" dy="0">dia &lt;- 1</tspan>
    </text>
    <text x="170.24" y="269.2" text-anchor="middle" font-size="12">
      <tspan x="170.24" dy="0">dia &lt;= 6?</tspan>
    </text>
    <text x="170.24" y="377.2" text-anchor="middle" font-size="12">
      <tspan x="170.24" dy="0">&quot;(&quot; + dia + &quot;, &quot;</tspan>
    </text>
    <text x="170.24" y="485.2" text-anchor="middle" font-size="12">
      <tspan x="170.24" dy="0">tarefa &lt;- 1</tspan>
    </text>
    <text x="170.24" y="593.2" text-anchor="middle" font-size="12">
      <tspan x="170.24" dy="0">tarefa &lt;= 6?</tspan>
    </text>
    <circle cx="439.36" cy="671.52" r="9" fill="#ffffff" stroke="#000000" stroke-width="1.5" filter="url(#drawio-shadow)" />
    <text x="439.36" y="675.52" text-anchor="middle" font-size="11" font-family="Helvetica, Arial, sans-serif">3</text>
    <circle cx="170.24" cy="671.52" r="9" fill="#ffffff" stroke="#000000" stroke-width="1.5" filter="url(#drawio-shadow)" />
    <text x="170.24" y="675.52" text-anchor="middle" font-size="11" font-family="Helvetica, Arial, sans-serif">1</text>
    <circle cx="415.36" cy="671.52" r="9" fill="#ffffff" stroke="#000000" stroke-width="1.5" filter="url(#drawio-shadow)" />
    <text x="415.36" y="675.52" text-anchor="middle" font-size="11" font-family="Helvetica, Arial, sans-serif">2</text>
    <circle cx="24" cy="671.52" r="9" fill="#ffffff" stroke="#000000" stroke-width="1.5" filter="url(#drawio-shadow)" />
    <text x="24" y="675.52" text-anchor="middle" font-size="11" font-family="Helvetica, Arial, sans-serif">5</text>
    <circle cx="48" cy="671.52" r="9" fill="#ffffff" stroke="#000000" stroke-width="1.5" filter="url(#drawio-shadow)" />
    <text x="48" y="675.52" text-anchor="middle" font-size="11" font-family="Helvetica, Arial, sans-serif">4</text>
  </g>
</svg>
